<svg aria-hidden="true" style="position: absolute; width: 0; height: 0; overflow: hidden;" version="1.1" xmlns="http://www.w3.org/2000/svg" xmlns:xlink="http://www.w3.org/1999/xlink">
<defs>
<symbol id="icon-logotype-white-desktop" viewBox="0 0 118 32">
<title>logotype-white-desktop</title>
<path fill="#fff" style="fill: var(--color5, #fff)" d="M0 2.038c0-0.991 0.812-1.803 1.758-1.803h10.052c7.122 0 11.81 3.785 11.81 10.006v0.090c0 6.805-5.68 10.322-12.395 10.322h-7.663v9.555c0 0.991-0.812 1.803-1.803 1.803-0.946 0.001-1.758-0.811-1.758-1.802v-28.17zM11.359 17.409c5.227 0 8.655-2.794 8.655-6.941v-0.091c0-4.508-3.381-6.851-8.475-6.851h-7.977v13.883h7.798zM30.42 1.813c0-0.991 0.811-1.803 1.756-1.803 0.993 0 1.803 0.812 1.803 1.803v28.395c0 0.991-0.811 1.803-1.803 1.803-0.946 0-1.757-0.812-1.757-1.803v-28.395zM43.217 1.858c0-0.946 0.811-1.758 1.758-1.758h0.496c0.812 0 1.308 0.406 1.803 1.036l19.157 24.429v-23.797c0-0.971 0.786-1.758 1.757-1.758h0c0.946 0 1.712 0.812 1.712 1.758v28.486c0 0.946-0.675 1.667-1.621 1.667h-0.181c-0.767 0-1.308-0.451-1.848-1.081l-19.563-25.017v24.429c0 0.946-0.766 1.758-1.757 1.758-0.948 0-1.714-0.812-1.714-1.758v-28.395zM78.818 1.813c0-0.991 0.811-1.803 1.758-1.803 0.991 0 1.802 0.812 1.802 1.803v17.263l17.984-18.435c0.406-0.361 0.812-0.631 1.399-0.631 0.946 0 1.714 0.857 1.714 1.758 0 0.496-0.225 0.902-0.587 1.261l-11.177 11.088 11.989 14.785c0.315 0.406 0.496 0.766 0.496 1.308 0 0.946-0.811 1.803-1.802 1.803-0.676 0-1.128-0.361-1.442-0.812l-11.764-14.648-6.807 6.805v6.851c0 0.991-0.811 1.803-1.802 1.803-0.948 0-1.758-0.812-1.758-1.803v-28.397z"></path>
</symbol>
<symbol id="icon-bg-hit" viewBox="0 0 32 32">
<title>bg-hit</title>
<path fill="#d22856" style="fill: var(--color1, #d22856)" d="M13.589 0l-13.589 13.405v18.595l32.438-32z"></path>
</symbol>
<symbol id="icon-htmlacademy" viewBox="0 0 32 32">
<title>htmlacademy</title>
<path fill="#2e368f" style="fill: var(--color2, #2e368f)" d="M16.107 2.667h-0.107l-10.507 1.12v19.307l10.507 6.24 10.507-6.24v-19.307l-10.4-1.12zM25.173 22.293l-9.173 5.44-9.173-5.44v-7.893l9.12 5.44v0.96l-6.24-3.733v0.96l6.293 3.787v1.013l-6.293-3.733v0.96l6.293 3.733 6.347-3.787v-4.053l2.827-1.707v8.053zM25.12 13.227l-2.507 1.493-1.173 0.693-5.493-3.253v0.96l4.693 2.827h-0.053l-0.107 0.053-0.693 0.373-3.893-2.293v0.96l3.093 1.813-0.747 0.48-2.293-1.387v0.96l1.547 0.907-1.547 0.907-9.067-5.387 9.067-5.44 9.173 5.333zM25.173 12.267l-9.227-5.44-9.12 5.44v-7.253l9.173-0.96 9.173 0.96v7.253z"></path>
</symbol>
<symbol id="icon-icon-editor-contrast" viewBox="0 0 32 32">
<title>icon-editor-contrast</title>
<path fill="#231f20" style="fill: var(--color3, #231f20)" d="M16 4.010c6.612 0 11.99 5.378 11.99 11.99s-5.378 11.99-11.99 11.99-11.99-5.378-11.99-11.99 5.378-11.99 11.99-11.99zM16 0c-8.836 0-16 7.163-16 16 0 8.835 7.164 16 16 16s16-7.165 16-16c0-8.837-7.164-16-16-16z"></path>
<path fill="#000" style="fill: var(--color4, #000)" d="M16 24.352c0 0 0.001 0 0.001 0 4.717 0 8.54-3.824 8.54-8.54 0-0 0-0.001 0-0.001v0c0-0 0-0.001 0-0.001 0-4.716-3.823-8.539-8.539-8.539-0.001 0-0.001 0-0.002 0h0z"></path>
</symbol>
<symbol id="icon-icon-editor-crop" viewBox="0 0 32 32">
<title>icon-editor-crop</title>
<path d="M22.667 20h2.667v-10.667c0-1.473-1.193-2.667-2.667-2.667h-10.667v2.667h10.667v10.667zM9.333 22.667v-21.333h-2.667v5.333h-5.333v2.667h5.333v13.333c0 1.473 1.193 2.667 2.667 2.667h13.333v5.333h2.667v-5.333h5.333v-2.667h-21.333z"></path>
</symbol>
<symbol id="icon-icon-editor-diagram-fill" viewBox="0 0 32 32">
<title>icon-editor-diagram-fill</title>
<path d="M16 0c-8.837 0-16 7.163-16 16s7.163 16 16 16 16-7.163 16-16c0-8.836-7.163-16-16-16zM16 30.004c-7.696 0-13.934-6.238-13.934-13.934s6.238-13.934 13.934-13.934c7.696 0 13.934 6.238 13.934 13.934s-6.239 13.934-13.934 13.934z"></path>
</symbol>
<symbol id="icon-icon-editor-fill" viewBox="0 0 32 32">
<title>icon-editor-fill</title>
<path d="M22.080 11.92l-11.92-11.92-1.887 1.887 3.173 3.173-6.86 6.86c-0.361 0.362-0.585 0.861-0.585 1.413s0.223 1.052 0.585 1.413l7.333 7.333c0.387 0.393 0.9 0.587 1.413 0.587s1.027-0.193 1.413-0.587l7.333-7.333c0.361-0.362 0.585-0.861 0.585-1.413s-0.224-1.052-0.585-1.413l0 0zM6.94 13.333l6.393-6.387 6.393 6.387h-12.787zM25.333 15.333s-2.667 2.887-2.667 4.667c0 1.473 1.193 2.667 2.667 2.667s2.667-1.193 2.667-2.667c0-1.78-2.667-4.667-2.667-4.667zM0 26.667h32v2h-32z"></path>
</symbol>
<symbol id="icon-icon-facebook" viewBox="0 0 15 32">
<title>icon-facebook</title>
<path fill="#d22856" style="fill: var(--color1, #d22856)" d="M10.602 5.673h4.052v-5.673h-4.863c-5.304 0.306-7.19 4.033-6.501 10.333h-3.292v5.943h3.309v15.735h6.484v-15.735h4.828v-5.943h-4.843c-0.036-1.766-0.061-4.066 0.826-4.66z"></path>
</symbol>
<symbol id="icon-icon-heart" viewBox="0 0 33 32">
<title>icon-heart</title>
<path fill="#d22856" style="fill: var(--color1, #d22856)" d="M16.641 32.003c-0.586-0-1.111-0.256-1.471-0.663l-0.002-0.002c-10.136-11.54-12.394-14.14-12.965-14.871h-0.011c-1.361-1.727-2.185-3.934-2.191-6.332v-0.001c0.006-5.597 4.542-10.133 10.139-10.139h0.001c2.493 0 4.815 0.854 6.63 2.397 1.765-1.487 4.063-2.392 6.572-2.397h0.001c5.597 0.006 10.133 4.542 10.139 10.139v0.001c0 2.426-0.849 4.681-2.391 6.355l-12.971 14.842c-0.361 0.413-0.89 0.673-1.479 0.673v0zM5.311 14.105c0.555 0.681 6.595 7.577 11.324 12.965l11.538-13.195c0.907-0.985 1.388-2.295 1.388-3.734-0.003-3.434-2.785-6.217-6.218-6.221h-0c-1.946 0-3.793 0.918-5.071 2.517-0.375 0.45-0.935 0.734-1.561 0.734h-0c-0.627-0.008-1.182-0.313-1.531-0.78l-0.004-0.005c-1.149-1.507-2.944-2.469-4.965-2.469-0.025 0-0.050 0-0.075 0l0.004-0c-3.434 0.005-6.215 2.788-6.218 6.221v0c0 1.809 0.734 3.125 1.353 3.915l0.037 0.051z"></path>
</symbol>
<symbol id="icon-icon-menu-burger" viewBox="0 0 67 32">
<title>icon-menu-burger</title>
<path fill="#fff" style="fill: var(--color5, #fff)" d="M1.516 0.002c-0.836 0-1.516 0.571-1.516 1.346v2.641c0 0.744 0.659 1.346 1.518 1.346h63.552c0.837 0 1.517-0.571 1.517-1.346v-2.641c0-0.744-0.659-1.346-1.517-1.346h-63.555zM1.516 13.338c-0.836 0-1.516 0.571-1.516 1.346v2.64c0 0.743 0.659 1.346 1.518 1.346h63.552c0.837 0 1.517-0.571 1.517-1.346v-2.64c0-0.744-0.659-1.346-1.517-1.346h-63.555zM1.516 26.672c-0.836 0-1.516 0.572-1.516 1.348v2.641c0 0.743 0.659 1.346 1.518 1.346h63.552c0.837 0 1.517-0.571 1.517-1.346v-2.641c0-0.744-0.659-1.348-1.517-1.348h-63.555z"></path>
</symbol>
<symbol id="icon-icon-menu-cross" viewBox="0 0 32 32">
<title>icon-menu-cross</title>
<path fill="#fff" style="fill: var(--color5, #fff)" d="M20.235 16.004l11.481-11.479c0.182-0.182 0.295-0.434 0.295-0.712s-0.113-0.529-0.295-0.712l-2.807-2.807c-0.182-0.183-0.433-0.296-0.711-0.296s-0.529 0.113-0.711 0.296l-11.482 11.481-11.481-11.481c-0.185-0.176-0.436-0.284-0.712-0.284s-0.527 0.108-0.712 0.284l-2.805 2.807c-0.182 0.182-0.295 0.434-0.295 0.712s0.113 0.529 0.295 0.712l11.481 11.479-11.481 11.479c-0.182 0.182-0.295 0.434-0.295 0.712s0.113 0.53 0.295 0.712l2.807 2.808c0.181 0.184 0.433 0.298 0.711 0.298s0.53-0.114 0.711-0.297l11.482-11.481 11.481 11.481c0.181 0.183 0.433 0.296 0.711 0.296s0.529-0.113 0.711-0.296l2.807-2.809c0.182-0.182 0.295-0.434 0.295-0.712s-0.113-0.53-0.295-0.712l-11.481-11.479z"></path>
</symbol>
<symbol id="icon-icon-no" viewBox="0 0 32 32">
<title>icon-no</title>
<path fill="#f25b26" style="fill: var(--color6, #f25b26)" d="M18.538 16.001l12.938-12.936c0.338-0.327 0.548-0.784 0.548-1.291 0-0.991-0.803-1.794-1.794-1.794-0.506 0-0.964 0.21-1.29 0.547l-0 0-12.938 12.936-12.936-12.939c-0.327-0.338-0.784-0.548-1.291-0.548-0.991 0-1.794 0.803-1.794 1.794 0 0.506 0.21 0.964 0.547 1.29l0 0 12.936 12.938-12.939 12.938c-0.325 0.325-0.525 0.773-0.525 1.269 0 0.991 0.803 1.795 1.795 1.795 0.496 0 0.944-0.201 1.269-0.526l12.938-12.936 12.936 12.938c0.351 0.351 0.81 0.525 1.269 0.525s0.919-0.175 1.269-0.525c0.325-0.325 0.525-0.773 0.525-1.269s-0.201-0.944-0.525-1.269l-12.938-12.938z"></path>
</symbol>
<symbol id="icon-icon-twitter" viewBox="0 0 38 32">
<title>icon-twitter</title>
<path fill="#d22856" style="fill: var(--color1, #d22856)" d="M24.624 0.341c3.789-1.058 6.709 0.574 8.042 2.512 1.515-0.493 2.994-1.026 4.522-1.508-0.009 1.835-1.174 3.226-1.927 3.769 1.536 0.362 2.931-1.048 2.931-1.048-0.382 2.13-2.259 3.81-3.516 4.315-0.522 14.386-7.141 23.91-22.657 23.62h-1.004c-0.921 0-9.362-0.982-11.014-4.022 5.109 0.419 8.753-0.899 10.552-2.51-2.158-0.639-6.026-1.013-6.7-6.287 0.79 0.229 1.272 0.487 2.68 0.255-2.697-1.824-5.692-3.354-5.526-8.042 0.642 0.698 2.401 1.141 3.014 1.006-1.582-0.513-4.43-7.16-2.010-10.554 4.088 3.952 8.398 7.684 16.082 8.042 0.471-4.888 2.556-8.164 6.532-9.548z"></path>
</symbol>
<symbol id="icon-icon-yes" viewBox="0 0 40 32">
<title>icon-yes</title>
<path fill="#49ca50" style="fill: var(--color7, #49ca50)" d="M39.458 1.707c-0.333-0.334-0.794-0.54-1.303-0.54s-0.97 0.207-1.303 0.54l-24.671 24.673-9.033-9.033c-0.334-0.334-0.794-0.54-1.303-0.54-1.018 0-1.843 0.825-1.843 1.843 0 0.509 0.206 0.97 0.54 1.303l10.336 10.336c0.333 0.335 0.794 0.542 1.303 0.542s0.97-0.207 1.303-0.542l0-0 25.975-25.809c0.721-0.887 0.721-2.054 0-2.774z"></path>
</symbol>
<symbol id="icon-icon-youtube" viewBox="0 0 34 32">
<title>icon-youtube</title>
<path fill="#d22856" style="fill: var(--color1, #d22856)" d="M4.073 31.611c-2.24 1.095-4.073-0.050-4.073-2.545v-26.115c0-2.497 1.833-3.637 4.073-2.545l27.841 13.612c2.237 1.097 2.237 2.887 0 3.983l-27.841 13.609z"></path>
</symbol>
<symbol id="icon-logo-android" viewBox="0 0 29 32">
<title>logo-android</title>
<path fill="#a4c639" style="fill: var(--color8, #a4c639)" d="M23.231 9.532h-17.826c-0.006 0.075-0.012 0.15-0.012 0.227v12.761c0 1.31 0.991 2.375 2.256 2.468v5.055c0 1.084 0.879 1.963 1.963 1.963s1.963-0.879 1.963-1.963v0-5.049h5.483v5.049c0 0 0 0 0 0.001 0 1.084 0.879 1.962 1.962 1.962 0 0 0 0 0.001 0h-0c0 0 0.001 0 0.001 0 1.084 0 1.962-0.879 1.962-1.962 0-0 0-0 0-0.001v0-5.058c1.264-0.093 2.256-1.157 2.256-2.468v-12.758c0-0.077-0.003-0.152-0.009-0.227zM1.963 10.668c1.084 0 1.963 0.879 1.964 1.963v8.422c0 1.084-0.879 1.964-1.964 1.964s-1.964-0.879-1.964-1.964v0-8.422c0-1.084 0.879-1.963 1.963-1.963 0 0 0 0 0.001 0h-0zM26.669 10.668c0 0 0 0 0.001 0 1.084 0 1.963 0.879 1.963 1.963v8.422c0 0 0 0 0 0.001 0 1.084-0.879 1.963-1.963 1.963-0 0-0 0-0.001 0h0c-0 0-0 0-0.001 0-1.084 0-1.962-0.879-1.962-1.962 0-0 0-0.001 0-0.001v0-8.422c0-0 0-0 0-0.001 0-1.084 0.879-1.962 1.962-1.962 0 0 0 0 0.001 0h-0zM5.463 8.142h17.708c-0.027-1.894-0.84-3.621-2.168-4.95l1.664-2.881c0.017-0.030 0.028-0.065 0.028-0.103 0-0.114-0.093-0.207-0.207-0.207-0.076 0-0.143 0.041-0.179 0.103l-0.001 0.001-1.614 2.794c-1.396-1.261-4.252-2.313-6.378-2.313-2.052 0-4.982 1.053-6.378 2.313l-1.614-2.795c-0.037-0.058-0.102-0.096-0.175-0.096-0.114 0-0.207 0.093-0.207 0.207 0 0.035 0.009 0.068 0.024 0.098l-0.001-0.001 1.664 2.881c-1.327 1.329-2.141 3.057-2.167 4.951zM17.229 4.629c-0.001-0.548 0.452-0.993 1.012-0.995 0.562-0.001 1.017 0.441 1.019 0.989v0.005c0.001 0.548-0.452 0.993-1.014 0.995-0.56 0.001-1.016-0.442-1.018-0.989v-0.005zM9.647 4.629c-0.001-0.548 0.452-0.993 1.013-0.995s1.017 0.441 1.019 0.989v0.005c0.001 0.548-0.452 0.993-1.012 0.995s-1.017-0.442-1.019-0.989v-0.005z"></path>
</symbol>
<symbol id="icon-logo-apple" viewBox="0 0 26 32">
<title>logo-apple</title>
<path fill="#fff" style="fill: var(--color5, #fff)" d="M21.763 17.001c0.046 4.844 4.249 6.455 4.295 6.475-0.035 0.114-0.671 2.297-2.214 4.552-1.334 1.949-2.718 3.891-4.899 3.932-2.142 0.039-2.831-1.27-5.281-1.27s-3.215 1.23-5.243 1.308c-2.105 0.080-3.708-2.108-5.053-4.051-2.749-3.973-4.848-11.227-2.028-16.123 1.401-2.432 3.905-3.971 6.622-4.011 2.067-0.039 4.018 1.391 5.281 1.391s3.634-1.719 6.127-1.467c1.043 0.043 3.972 0.421 5.853 3.174-0.152 0.096-3.494 2.043-3.459 6.091zM17.737 5.11c1.118-1.353 1.87-3.236 1.665-5.11-1.611 0.065-3.559 1.074-4.714 2.426-1.036 1.197-1.943 3.113-1.698 4.95 1.795 0.139 3.629-0.913 4.747-2.266z"></path>
</symbol>
<symbol id="icon-logo-htmlacademy" viewBox="0 0 25 32">
<title>logo-htmlacademy</title>
<path d="M12.788 0.016l-0.139-0.016-12.65 1.326v23.157l12.65 7.528 12.65-7.527v-23.158l-12.511-1.31zM23.491 11.387l-10.821-6.379-0.001-0.098-0.082 0.047-0.083-0.053v0.102l-10.699 6.371v-8.424l10.843-1.138 10.843 1.138v8.432zM12.586 6.373l10.816 6.304-4.206 2.479-6.66-3.964-0.012 1.329 5.544 3.299-0.808 0.476-4.724-2.81-0.012 1.329 3.594 2.136-0.734 0.491-2.847-1.678-0.012 1.327 1.739 1.024-1.69 1.015-10.664-6.339 10.678-6.418zM1.806 14.205l10.715 6.377 0.014 0.98-7.457-4.44-0.014 1.33 7.492 4.504 0.016 1.010-7.486-4.452-0.012 1.329 7.574 4.551 7.646-4.575v-1.191l-0.010-0.139v-3.532l3.207-1.912v9.409l-10.843 6.453-10.843-6.452v-9.251z"></path>
</symbol>
<symbol id="icon-logo-microsoft" viewBox="0 0 33 32">
<title>logo-microsoft</title>
<path fill="#f05423" style="fill: var(--color9, #f05423)" d="M15.907 15.208h-15.907v-15.205h15.907v15.205z"></path>
<path fill="#84c441" style="fill: var(--color10, #84c441)" d="M33.471 15.208h-15.906v-15.205h15.906v15.205z"></path>
<path fill="#2dabe2" style="fill: var(--color11, #2dabe2)" d="M15.906 32.003h-15.906v-15.204h15.906v15.204z"></path>
<path fill="#f9bc15" style="fill: var(--color12, #f9bc15)" d="M33.471 32.003h-15.906v-15.204h15.906v15.204z"></path>
</symbol>
<symbol id="icon-logo-pink-blue-mobile" viewBox="0 0 116 32">
<title>logo-pink-blue-mobile</title>
<path fill="#283645" style="fill: var(--color13, #283645)" d="M56.966 14.79c0-0.561 0.46-1.021 0.995-1.021h5.691c4.032 0 6.686 2.143 6.686 5.664v0.050c0 3.852-3.216 5.844-7.018 5.844h-4.339v5.409c0 0.561-0.46 1.020-1.022 1.020-0.536 0-0.995-0.46-0.995-1.020l0.002-15.946zM63.397 23.493c2.96 0 4.9-1.582 4.9-3.93v-0.049c0-2.553-1.913-3.879-4.798-3.879h-4.517v7.86l4.415-0.002zM74.188 14.662c0-0.561 0.459-1.021 0.995-1.021 0.562 0 1.021 0.46 1.021 1.021v16.076c-0.001 0.563-0.458 1.019-1.021 1.020h-0c-0.536 0-0.995-0.459-0.995-1.020v-16.076zM81.434 14.688c0-0.536 0.46-0.995 0.996-0.995h0.281c0.46 0 0.741 0.23 1.021 0.586l10.846 13.831v-13.472c0-0.536 0.434-0.995 0.996-0.995 0.536 0 0.971 0.46 0.971 0.995v16.128c0 0.537-0.38 0.943-0.918 0.943h-0.102c-0.434 0-0.742-0.254-1.045-0.612l-11.077-14.161v13.83c0 0.537-0.434 0.996-0.996 0.996-0.536 0-0.969-0.46-0.969-0.996v-16.078h-0.002zM101.588 14.662c0-0.561 0.46-1.021 0.996-1.021 0.561 0 1.019 0.46 1.019 1.021v9.773l10.183-10.43c0.23-0.204 0.459-0.357 0.791-0.357 0.536 0 0.971 0.485 0.971 0.995 0 0.281-0.128 0.51-0.333 0.714l-6.328 6.277 6.788 8.37c0.178 0.231 0.281 0.434 0.281 0.742 0 0.536-0.457 1.021-1.018 1.021-0.382 0-0.64-0.205-0.816-0.46l-6.659-8.294-3.854 3.853v3.88c-0.001 0.563-0.457 1.019-1.019 1.021h-0c-0.537 0-0.996-0.46-0.996-1.021v-16.085h-0.005z"></path>
<path fill="#d22856" style="fill: var(--color1, #d22856)" d="M47.921 22.205l-4.102-16.934c-0.286-1.861-2.055-5.271-6.815-5.271-0.657 0-1.189 0.532-1.189 1.189s0.532 1.189 1.189 1.189v0c3.849 0 4.419 2.956 4.469 3.284l3.778 15.615h-1.643c-0.588-4.698-4.599-8.347-9.453-8.347s-8.866 3.649-9.453 8.347h-1.442c-0.587-4.698-4.599-8.347-9.453-8.347s-8.865 3.649-9.453 8.347h-1.643l3.778-15.615c0.050-0.328 0.621-3.284 4.469-3.284 0.657 0 1.189-0.532 1.189-1.189s-0.532-1.189-1.189-1.189v0c-4.76 0-6.529 3.41-6.815 5.271l-4.102 16.934c-0.211 0.879 0.421 1.447 1.13 1.447 0.010 0 0.018 0.003 0.029 0.003h3.156c0.587 4.697 4.599 8.346 9.453 8.346s8.865-3.649 9.453-8.346h1.438c0.588 4.697 4.599 8.346 9.453 8.346s8.866-3.649 9.453-8.346h3.156c0.010 0 0.018-0.003 0.029-0.003 0.709 0 1.341-0.568 1.13-1.447zM20.857 23.654c-0.567 3.386-3.504 5.969-7.051 5.969s-6.483-2.583-7.051-5.969c-0.065-0.387-0.107-0.783-0.107-1.189s0.042-0.801 0.107-1.189c0.567-3.385 3.504-5.969 7.051-5.969s6.483 2.584 7.051 5.969c0.065 0.388 0.107 0.783 0.107 1.189s-0.042 0.801-0.107 1.189zM41.207 23.654c-0.568 3.386-3.504 5.969-7.051 5.969s-6.484-2.583-7.051-5.969c-0.065-0.387-0.107-0.783-0.107-1.189s0.042-0.801 0.107-1.189c0.567-3.385 3.504-5.969 7.051-5.969s6.484 2.584 7.051 5.969c0.065 0.388 0.107 0.783 0.107 1.189s-0.042 0.801-0.107 1.189z"></path>
</symbol>
<symbol id="icon-logo-pink-white-mobile" viewBox="0 0 104 32">
<title>logo-pink-white-mobile</title>
<path fill="#fff" style="fill: var(--color5, #fff)" d="M0 2.038c0-0.991 0.812-1.803 1.758-1.803h10.052c7.122 0 11.81 3.785 11.81 10.006v0.090c0 6.805-5.68 10.322-12.395 10.322h-7.663v9.555c0 0.991-0.812 1.803-1.803 1.803-0.946 0.001-1.758-0.811-1.758-1.802v-28.17zM11.359 17.409c5.227 0 8.655-2.794 8.655-6.941v-0.091c0-4.508-3.381-6.851-8.475-6.851h-7.977v13.883h7.798zM30.42 1.813c0-0.991 0.811-1.803 1.756-1.803 0.993 0 1.803 0.812 1.803 1.803v28.395c0 0.991-0.811 1.803-1.803 1.803-0.946 0-1.757-0.812-1.757-1.803v-28.395zM43.217 1.858c0-0.946 0.811-1.758 1.758-1.758h0.496c0.812 0 1.308 0.406 1.803 1.036l19.157 24.429v-23.797c0-0.971 0.786-1.758 1.757-1.758h0c0.946 0 1.712 0.812 1.712 1.758v28.486c0 0.946-0.675 1.667-1.621 1.667h-0.181c-0.767 0-1.308-0.451-1.848-1.081l-19.563-25.017v24.429c0 0.946-0.766 1.758-1.757 1.758-0.948 0-1.714-0.812-1.714-1.758v-28.395zM78.818 1.813c0-0.991 0.811-1.803 1.758-1.803 0.991 0 1.802 0.812 1.802 1.803v17.263l17.984-18.435c0.406-0.361 0.812-0.631 1.399-0.631 0.946 0 1.714 0.857 1.714 1.758 0 0.496-0.225 0.902-0.587 1.261l-11.177 11.088 11.989 14.785c0.315 0.406 0.496 0.766 0.496 1.308 0 0.946-0.811 1.803-1.802 1.803-0.676 0-1.128-0.361-1.442-0.812l-11.764-14.648-6.807 6.805v6.851c0 0.991-0.811 1.803-1.802 1.803-0.948 0-1.758-0.812-1.758-1.803v-28.397z"></path>
</symbol>
</defs>
</svg>
